<svg width="20" height="21" viewBox="0 0 20 21" fill="none" xmlns="http://www.w3.org/2000/svg">
<path fill-rule="evenodd" clip-rule="evenodd" d="M5 4.99999V3.89288C5 3.3406 5.44772 2.89288 6 2.89288C6.12066 2.89288 6.24033 2.91472 6.35321 2.95734L11.7635 4.99999H5ZM3 4.99999V3.89288C3 2.23603 4.34315 0.892883 6 0.892883C6.36199 0.892883 6.72098 0.958396 7.05964 1.08625L17.5681 5.05371C18.9533 5.31923 20 6.53738 20 7.99999V18C20 19.6568 18.6569 21 17 21H3C1.34315 21 0 19.6568 0 18V15V11V7.99999C0 6.34314 1.34315 4.99999 3 4.99999ZM2 12V14H5C5.55228 14 6 13.5523 6 13C6 12.4477 5.55228 12 5 12H2ZM2 16H5C6.65685 16 8 14.6568 8 13C8 11.3431 6.65685 9.99999 5 9.99999H2V7.99999C2 7.44771 2.44772 6.99999 3 6.99999H17C17.0224 6.99999 17.0446 7.00073 17.0667 7.00218L17.5221 7.17413L17.5304 7.1521C17.8125 7.32891 18 7.64255 18 7.99999V18C18 18.5523 17.5523 19 17 19H3C2.44772 19 2 18.5523 2 18V16Z" fill="#A8AABC"/>
</svg>
