<svg width="16" height="16" viewBox="0 0 16 16" fill="none" xmlns="http://www.w3.org/2000/svg">
<path fill-rule="evenodd" clip-rule="evenodd" d="M8.20002 0.0499878C10.6025 0.0499878 12.55 1.99755 12.55 4.39999C12.55 5.46773 12.1653 6.44563 11.527 7.20262C14.0641 8.41928 15.75 10.9618 15.75 13.8274C15.75 15.3195 12.9684 15.8906 8.83135 15.9455L7.88996 15.9494L7.2681 15.9424C3.29318 15.8716 0.650024 15.2943 0.650024 13.8274C0.650024 10.9631 2.33458 8.42009 4.87289 7.20276L4.72922 7.0227C4.17367 6.28744 3.85002 5.37498 3.85002 4.39999C3.85002 1.99755 5.79759 0.0499878 8.20002 0.0499878ZM6.1403 8.29916C3.81783 9.11517 2.21734 11.2401 2.1521 13.6728L2.19298 13.6968L2.2995 13.7507C2.59322 13.8867 3.05836 14.0152 3.65723 14.1225C4.84706 14.3356 6.4859 14.4517 8.19926 14.45C9.90987 14.4482 11.5502 14.329 12.7423 14.1147C13.2668 14.0205 13.6892 13.9103 13.9839 13.7935L14.1587 13.716L14.2478 13.667C14.1804 11.246 12.5926 9.13205 10.2896 8.30972C9.62842 8.62602 9.11886 8.74999 8.46537 8.74999L8.1726 8.74949L8.08802 8.74599L8.02552 8.74029L7.92415 8.7414L7.67302 8.71699L7.57588 8.69994C7.47834 8.67613 7.39429 8.63757 7.32329 8.58804C7.22755 8.60592 7.12084 8.60538 7.00542 8.58042L7.29603 8.64916L7.50199 8.6913L7.67393 8.71812L7.5176 8.69666L7.29744 8.65608L7.08118 8.60456L6.78032 8.52516C6.73656 8.51362 6.69557 8.49961 6.65727 8.4834L6.1403 8.29916ZM8.20002 7.24999L8.05466 7.24603L7.87202 7.23399L7.86102 7.22999L7.76784 7.22389C7.71092 7.22309 7.65731 7.2278 7.60759 7.23734C7.56613 7.20896 7.52015 7.1837 7.46948 7.16216L7.39402 7.13499L7.46525 7.15456C7.55927 7.17956 7.65473 7.19974 7.73573 7.21269L7.85602 7.22799L7.72394 7.20647L7.35366 7.12167L7.31063 7.10893C6.15823 6.73814 5.35002 5.64693 5.35002 4.39999C5.35002 2.82598 6.62601 1.54999 8.20002 1.54999C9.77404 1.54999 11.05 2.82598 11.05 4.39999C11.05 5.974 9.77404 7.24999 8.20002 7.24999Z" fill="white"/>
</svg>
