<?xml version="1.0" encoding="UTF-8"?>
<svg width="736px" height="635px" viewBox="0 0 736 635" version="1.1" xmlns="http://www.w3.org/2000/svg" xmlns:xlink="http://www.w3.org/1999/xlink">
    <title>violet_light grey_logo_velas</title>
    <g id="Page-1" stroke="none" stroke-width="1" fill="none" fill-rule="evenodd">
        <g id="violet_light-grey_logo_velas" fill-rule="nonzero">
            <rect id="Rectangle" fill="#9D99A3" x="365.02" y="307.9" width="5.42" height="169.7"></rect>
            <line x1="138.78" y1="80.03" x2="278.13" y2="152.69" id="Path" stroke="#9D99A3" stroke-width="5.33" fill="#9D99A3"></line>
            <line x1="596.61" y1="80.03" x2="457.26" y2="152.69" id="Path" stroke="#9D99A3" stroke-width="5.33" fill="#9D99A3"></line>
            <path d="M128.42,74 L181.84,166.58 L186.18,172.58 L224.18,239.72 L227.45,245.66 L227.62,246 L367.73,488.56 L507.94,245.66 L511.22,239.72 L549.22,172.58 L553.44,166.58 L606.92,74 L128.42,74 Z M544.75,169.85 L543.19,172.57 L504.54,239.71 L500.77,246.27 L370.42,471.8 L367.7,476.52 L365,471.8 L234.73,246.21 L230.95,239.71 L192.3,172.57 L192.19,172.41 L190.63,169.85 L189.58,168.08 L138.82,80.08 L138.82,80.08 L138.82,80 L596.52,80 L596.41,80.17 L544.75,169.85 Z" id="Shape" fill="#9D99A3"></path>
            <polygon id="Path" fill="#9D99A3" points="455.25 150.3 367.67 200.89 295.54 159.25 295.48 159.25 286.6 154.08 286.15 153.86 280.04 150.3"></polygon>
            <polygon id="Path" fill="#9D99A3" points="365.01 205.95 365.01 307.9 346.4 275.7 282.15 164.3 276.77 155.08 276.77 155.02 277.15 155.3 283.54 158.91 289.93 162.63"></polygon>
            <polygon id="Path" fill="#9D99A3" points="458.52 155.3 430.59 203.67 430.59 203.73 372.17 304.91 370.45 307.9 370.45 206.11 442.97 164.24 443.03 164.24 451.97 159.08 452.41 158.8"></polygon>
            <path d="M735.07,0 L635.42,172.57 L549.23,172.57 L553.45,166.57 L606.93,74 L128.42,74 L181.84,166.58 L186.18,172.58 L99.88,172.58 L0.27,0 L140.77,0 L140.77,3 C140.743431,10.3995545 143.657436,17.5065919 148.870957,22.7576208 C154.084479,28.0086498 161.170445,30.9735258 168.57,31 L566.75,31 C582.095032,30.9724208 594.520025,18.5250567 594.52,3.18 L594.52,0.18 L597.52,0.02 L735.07,0 Z" id="Path" fill="#9D99A3"></path>
            <polygon id="Path" fill="#9D41EB" points="595.52 239.71 367.73 634.27 139.88 239.71 224.18 239.71 227.45 245.65 227.62 245.99 367.73 488.55 507.95 245.65 511.22 239.71"></polygon>
        </g>
    </g>
</svg>